<?xml version="1.0" encoding="UTF-8" standalone="no"?>
<svg width="360px" height="360px" viewBox="0 0 360 360" version="1.1" xmlns="http://www.w3.org/2000/svg" xmlns:xlink="http://www.w3.org/1999/xlink">
    <!-- Generator: Sketch 39.1 (31720) - http://www.bohemiancoding.com/sketch -->
    <title>parrot-lory-logo</title>
    <desc>Created with Sketch.</desc>
    <defs></defs>
    <g id="Page-1" stroke="none" stroke-width="1" fill="none" fill-rule="evenodd">
        <g id="parrot-lory-logo">
            <g id="Parrot:-Lory" transform="translate(38.000000, 41.000000)">
                <path d="M0,77.8371811 C0,93.0778568 23.389946,125.931694 44.3344287,142 C44.3344269,142 36.3344287,145 20.3344287,143 C30.5340171,161.437717 49.8693542,177.392746 67.3344287,184 C61.3083533,201.612496 42.0796051,235.363739 27.3344287,273 C83.2087784,291.420197 96.9983368,244.929703 98.3344287,237 C155.28337,237 201.334427,185 201.334429,131 L201.334429,1.00000029 C129.113327,1 101.334429,65 101.334429,65 L7.3344287,1 C7.3344287,1 1.86544252,45.3323708 27.3344287,83 C19.7842102,82.8768383 14.7772163,82.3184052 0,77.8371811 Z" id="Parrot:-Body-+-wings" fill="#00A57D"></path>
                <path d="M66.7190821,184.447006 C65.0163784,189.350427 62.3201912,195.472488 59,202.5572 C71.1535983,207.44274 84.4267746,210.131323 98.3279032,210.131323 C147.95068,210.131323 189.57164,175.871474 200.827903,129.714656 L200.827903,129 C185.24488,166.087192 148.577858,192.131323 105.827903,192.131323 C91.9838943,192.131323 78.7778044,189.400068 66.7190821,184.447006 L66.7190821,184.447006 Z" id="Parrot:-Wing-shadow" fill-opacity="0.15" fill="#000000"></path>
                <path d="M201,131 C222.202309,126.859882 237.737776,110.490108 242,89 C223.525766,89.0000009 201,89 201,89 C201,89 201,113.626713 201,131 Z" id="Parrot:-Beed:-Lover" fill="#F29924"></path>
                <path d="M201,89 L284,89 C284,89 284.000713,83.0184825 284,80 C283.989565,35.8394385 249.27605,0 204.99762,0 L201,0 L201,89 Z" id="Parrot:-Beed:-Upper" fill="#F2BA41"></path>
                <path d="M201,131.003754 C201,125 201,25 201,0 C164.325349,0 135,29.3253489 135,65.5 C135,101.674651 164.85653,131.003754 201,131.003754 Z" id="Parrot:-Face" fill="#FFFFFF"></path>
                <circle id="Parrot:-Eye" fill="#4B4B4D" cx="171" cy="66" r="20"></circle>
            </g>
        </g>
    </g>
</svg>